<svg width="318" height="55" viewBox="0 0 318 55" fill="none" xmlns="http://www.w3.org/2000/svg">
<rect x="1.5" y="1.5" width="315" height="52" rx="26" stroke="#FFE385" stroke-width="3"/>
<path d="M100.623 21.16V35H98.8034V24.68L94.2034 35H92.9234L88.3034 24.66V35H86.4834V21.16H88.4434L93.5634 32.6L98.6834 21.16H100.623ZM105.65 22.26C105.303 22.26 105.01 22.14 104.77 21.9C104.53 21.66 104.41 21.3667 104.41 21.02C104.41 20.6733 104.53 20.38 104.77 20.14C105.01 19.9 105.303 19.78 105.65 19.78C105.983 19.78 106.263 19.9 106.49 20.14C106.73 20.38 106.85 20.6733 106.85 21.02C106.85 21.3667 106.73 21.66 106.49 21.9C106.263 22.14 105.983 22.26 105.65 22.26ZM106.53 24.04V35H104.71V24.04H106.53ZM114.512 35.18C113.672 35.18 112.918 35.04 112.252 34.76C111.585 34.4667 111.058 34.0667 110.672 33.56C110.285 33.04 110.072 32.4467 110.032 31.78H111.912C111.965 32.3267 112.218 32.7733 112.672 33.12C113.138 33.4667 113.745 33.64 114.492 33.64C115.185 33.64 115.732 33.4867 116.132 33.18C116.532 32.8733 116.732 32.4867 116.732 32.02C116.732 31.54 116.518 31.1867 116.092 30.96C115.665 30.72 115.005 30.4867 114.112 30.26C113.298 30.0467 112.632 29.8333 112.112 29.62C111.605 29.3933 111.165 29.0667 110.792 28.64C110.432 28.2 110.252 27.6267 110.252 26.92C110.252 26.36 110.418 25.8467 110.752 25.38C111.085 24.9133 111.558 24.5467 112.172 24.28C112.785 24 113.485 23.86 114.272 23.86C115.485 23.86 116.465 24.1667 117.212 24.78C117.958 25.3933 118.358 26.2333 118.412 27.3H116.592C116.552 26.7267 116.318 26.2667 115.892 25.92C115.478 25.5733 114.918 25.4 114.212 25.4C113.558 25.4 113.038 25.54 112.652 25.82C112.265 26.1 112.072 26.4667 112.072 26.92C112.072 27.28 112.185 27.58 112.412 27.82C112.652 28.0467 112.945 28.2333 113.292 28.38C113.652 28.5133 114.145 28.6667 114.772 28.84C115.558 29.0533 116.198 29.2667 116.692 29.48C117.185 29.68 117.605 29.9867 117.952 30.4C118.312 30.8133 118.498 31.3533 118.512 32.02C118.512 32.62 118.345 33.16 118.012 33.64C117.678 34.12 117.205 34.5 116.592 34.78C115.992 35.0467 115.298 35.18 114.512 35.18ZM137.733 25.14C137.733 26.3 137.333 27.2667 136.533 28.04C135.746 28.8 134.54 29.18 132.913 29.18H130.233V35H128.413V21.06H132.913C134.486 21.06 135.68 21.44 136.493 22.2C137.32 22.96 137.733 23.94 137.733 25.14ZM132.913 27.68C133.926 27.68 134.673 27.46 135.153 27.02C135.633 26.58 135.873 25.9533 135.873 25.14C135.873 23.42 134.886 22.56 132.913 22.56H130.233V27.68H132.913ZM142.815 25.82C143.135 25.1933 143.588 24.7067 144.175 24.36C144.775 24.0133 145.502 23.84 146.355 23.84V25.72H145.875C143.835 25.72 142.815 26.8267 142.815 29.04V35H140.995V24.04H142.815V25.82ZM154.236 35.18C153.209 35.18 152.276 34.9467 151.436 34.48C150.609 34.0133 149.956 33.3533 149.476 32.5C149.009 31.6333 148.776 30.6333 148.776 29.5C148.776 28.38 149.016 27.3933 149.496 26.54C149.989 25.6733 150.656 25.0133 151.496 24.56C152.336 24.0933 153.276 23.86 154.316 23.86C155.356 23.86 156.296 24.0933 157.136 24.56C157.976 25.0133 158.636 25.6667 159.116 26.52C159.609 27.3733 159.856 28.3667 159.856 29.5C159.856 30.6333 159.603 31.6333 159.096 32.5C158.603 33.3533 157.929 34.0133 157.076 34.48C156.223 34.9467 155.276 35.18 154.236 35.18ZM154.236 33.58C154.889 33.58 155.503 33.4267 156.076 33.12C156.649 32.8133 157.109 32.3533 157.456 31.74C157.816 31.1267 157.996 30.38 157.996 29.5C157.996 28.62 157.823 27.8733 157.476 27.26C157.129 26.6467 156.676 26.1933 156.116 25.9C155.556 25.5933 154.949 25.44 154.296 25.44C153.629 25.44 153.016 25.5933 152.456 25.9C151.909 26.1933 151.469 26.6467 151.136 27.26C150.803 27.8733 150.636 28.62 150.636 29.5C150.636 30.3933 150.796 31.1467 151.116 31.76C151.449 32.3733 151.889 32.8333 152.436 33.14C152.983 33.4333 153.583 33.58 154.236 33.58ZM172.689 24.04L166.089 40.16H164.209L166.369 34.88L161.949 24.04H163.969L167.409 32.92L170.809 24.04H172.689ZM185.519 29.1C185.519 29.4467 185.499 29.8133 185.459 30.2H176.699C176.765 31.28 177.132 32.1267 177.799 32.74C178.479 33.34 179.299 33.64 180.259 33.64C181.045 33.64 181.699 33.46 182.219 33.1C182.752 32.7267 183.125 32.2333 183.339 31.62H185.299C185.005 32.6733 184.419 33.5333 183.539 34.2C182.659 34.8533 181.565 35.18 180.259 35.18C179.219 35.18 178.285 34.9467 177.459 34.48C176.645 34.0133 176.005 33.3533 175.539 32.5C175.072 31.6333 174.839 30.6333 174.839 29.5C174.839 28.3667 175.065 27.3733 175.519 26.52C175.972 25.6667 176.605 25.0133 177.419 24.56C178.245 24.0933 179.192 23.86 180.259 23.86C181.299 23.86 182.219 24.0867 183.019 24.54C183.819 24.9933 184.432 25.62 184.859 26.42C185.299 27.2067 185.519 28.1 185.519 29.1ZM183.639 28.72C183.639 28.0267 183.485 27.4333 183.179 26.94C182.872 26.4333 182.452 26.0533 181.919 25.8C181.399 25.5333 180.819 25.4 180.179 25.4C179.259 25.4 178.472 25.6933 177.819 26.28C177.179 26.8667 176.812 27.68 176.719 28.72H183.639ZM188.241 29.5C188.241 28.3667 188.468 27.38 188.921 26.54C189.374 25.6867 190.001 25.0267 190.801 24.56C191.614 24.0933 192.541 23.86 193.581 23.86C194.928 23.86 196.034 24.1867 196.901 24.84C197.781 25.4933 198.361 26.4 198.641 27.56H196.681C196.494 26.8933 196.128 26.3667 195.581 25.98C195.048 25.5933 194.381 25.4 193.581 25.4C192.541 25.4 191.701 25.76 191.061 26.48C190.421 27.1867 190.101 28.1933 190.101 29.5C190.101 30.82 190.421 31.84 191.061 32.56C191.701 33.28 192.541 33.64 193.581 33.64C194.381 33.64 195.048 33.4533 195.581 33.08C196.114 32.7067 196.481 32.1733 196.681 31.48H198.641C198.348 32.6 197.761 33.5 196.881 34.18C196.001 34.8467 194.901 35.18 193.581 35.18C192.541 35.18 191.614 34.9467 190.801 34.48C190.001 34.0133 189.374 33.3533 188.921 32.5C188.468 31.6467 188.241 30.6467 188.241 29.5ZM204.289 25.54V32C204.289 32.5333 204.403 32.9133 204.629 33.14C204.856 33.3533 205.249 33.46 205.809 33.46H207.149V35H205.509C204.496 35 203.736 34.7667 203.229 34.3C202.723 33.8333 202.469 33.0667 202.469 32V25.54H201.049V24.04H202.469V21.28H204.289V24.04H207.149V25.54H204.289ZM215.134 35.18C214.108 35.18 213.174 34.9467 212.334 34.48C211.508 34.0133 210.854 33.3533 210.374 32.5C209.908 31.6333 209.674 30.6333 209.674 29.5C209.674 28.38 209.914 27.3933 210.394 26.54C210.888 25.6733 211.554 25.0133 212.394 24.56C213.234 24.0933 214.174 23.86 215.214 23.86C216.254 23.86 217.194 24.0933 218.034 24.56C218.874 25.0133 219.534 25.6667 220.014 26.52C220.508 27.3733 220.754 28.3667 220.754 29.5C220.754 30.6333 220.501 31.6333 219.994 32.5C219.501 33.3533 218.828 34.0133 217.974 34.48C217.121 34.9467 216.174 35.18 215.134 35.18ZM215.134 33.58C215.788 33.58 216.401 33.4267 216.974 33.12C217.548 32.8133 218.008 32.3533 218.354 31.74C218.714 31.1267 218.894 30.38 218.894 29.5C218.894 28.62 218.721 27.8733 218.374 27.26C218.028 26.6467 217.574 26.1933 217.014 25.9C216.454 25.5933 215.848 25.44 215.194 25.44C214.528 25.44 213.914 25.5933 213.354 25.9C212.808 26.1933 212.368 26.6467 212.034 27.26C211.701 27.8733 211.534 28.62 211.534 29.5C211.534 30.3933 211.694 31.1467 212.014 31.76C212.348 32.3733 212.788 32.8333 213.334 33.14C213.881 33.4333 214.481 33.58 215.134 33.58ZM228.027 35.18C227.187 35.18 226.434 35.04 225.767 34.76C225.101 34.4667 224.574 34.0667 224.187 33.56C223.801 33.04 223.587 32.4467 223.547 31.78H225.427C225.481 32.3267 225.734 32.7733 226.187 33.12C226.654 33.4667 227.261 33.64 228.007 33.64C228.701 33.64 229.247 33.4867 229.647 33.18C230.047 32.8733 230.247 32.4867 230.247 32.02C230.247 31.54 230.034 31.1867 229.607 30.96C229.181 30.72 228.521 30.4867 227.627 30.26C226.814 30.0467 226.147 29.8333 225.627 29.62C225.121 29.3933 224.681 29.0667 224.307 28.64C223.947 28.2 223.767 27.6267 223.767 26.92C223.767 26.36 223.934 25.8467 224.267 25.38C224.601 24.9133 225.074 24.5467 225.687 24.28C226.301 24 227.001 23.86 227.787 23.86C229.001 23.86 229.981 24.1667 230.727 24.78C231.474 25.3933 231.874 26.2333 231.927 27.3H230.107C230.067 26.7267 229.834 26.2667 229.407 25.92C228.994 25.5733 228.434 25.4 227.727 25.4C227.074 25.4 226.554 25.54 226.167 25.82C225.781 26.1 225.587 26.4667 225.587 26.92C225.587 27.28 225.701 27.58 225.927 27.82C226.167 28.0467 226.461 28.2333 226.807 28.38C227.167 28.5133 227.661 28.6667 228.287 28.84C229.074 29.0533 229.714 29.2667 230.207 29.48C230.701 29.68 231.121 29.9867 231.467 30.4C231.827 30.8133 232.014 31.3533 232.027 32.02C232.027 32.62 231.861 33.16 231.527 33.64C231.194 34.12 230.721 34.5 230.107 34.78C229.507 35.0467 228.814 35.18 228.027 35.18Z" fill="#FFE385"/>
</svg>
