<svg width="318" height="55" viewBox="0 0 318 55" fill="none" xmlns="http://www.w3.org/2000/svg">
<rect x="1.5" y="1.5" width="315" height="52" rx="26" stroke="#FFE385" stroke-width="3"/>
<path d="M114.873 21.16V35H113.053V24.68L108.453 35H107.173L102.553 24.66V35H100.733V21.16H102.693L107.813 32.6L112.933 21.16H114.873ZM119.9 22.26C119.553 22.26 119.26 22.14 119.02 21.9C118.78 21.66 118.66 21.3667 118.66 21.02C118.66 20.6733 118.78 20.38 119.02 20.14C119.26 19.9 119.553 19.78 119.9 19.78C120.233 19.78 120.513 19.9 120.74 20.14C120.98 20.38 121.1 20.6733 121.1 21.02C121.1 21.3667 120.98 21.66 120.74 21.9C120.513 22.14 120.233 22.26 119.9 22.26ZM120.78 24.04V35H118.96V24.04H120.78ZM140.534 25.14C140.534 26.3 140.134 27.2667 139.334 28.04C138.547 28.8 137.34 29.18 135.714 29.18H133.034V35H131.214V21.06H135.714C137.287 21.06 138.48 21.44 139.294 22.2C140.12 22.96 140.534 23.94 140.534 25.14ZM135.714 27.68C136.727 27.68 137.474 27.46 137.954 27.02C138.434 26.58 138.674 25.9533 138.674 25.14C138.674 23.42 137.687 22.56 135.714 22.56H133.034V27.68H135.714ZM148.576 35.18C147.549 35.18 146.616 34.9467 145.776 34.48C144.949 34.0133 144.296 33.3533 143.816 32.5C143.349 31.6333 143.116 30.6333 143.116 29.5C143.116 28.38 143.356 27.3933 143.836 26.54C144.329 25.6733 144.996 25.0133 145.836 24.56C146.676 24.0933 147.616 23.86 148.656 23.86C149.696 23.86 150.636 24.0933 151.476 24.56C152.316 25.0133 152.976 25.6667 153.456 26.52C153.949 27.3733 154.196 28.3667 154.196 29.5C154.196 30.6333 153.943 31.6333 153.436 32.5C152.943 33.3533 152.269 34.0133 151.416 34.48C150.563 34.9467 149.616 35.18 148.576 35.18ZM148.576 33.58C149.229 33.58 149.843 33.4267 150.416 33.12C150.989 32.8133 151.449 32.3533 151.796 31.74C152.156 31.1267 152.336 30.38 152.336 29.5C152.336 28.62 152.163 27.8733 151.816 27.26C151.469 26.6467 151.016 26.1933 150.456 25.9C149.896 25.5933 149.289 25.44 148.636 25.44C147.969 25.44 147.356 25.5933 146.796 25.9C146.249 26.1933 145.809 26.6467 145.476 27.26C145.143 27.8733 144.976 28.62 144.976 29.5C144.976 30.3933 145.136 31.1467 145.456 31.76C145.789 32.3733 146.229 32.8333 146.776 33.14C147.323 33.4333 147.923 33.58 148.576 33.58ZM159.409 25.82C159.729 25.1933 160.182 24.7067 160.769 24.36C161.369 24.0133 162.095 23.84 162.949 23.84V25.72H162.469C160.429 25.72 159.409 26.8267 159.409 29.04V35H157.589V24.04H159.409V25.82ZM168.27 25.54V32C168.27 32.5333 168.383 32.9133 168.61 33.14C168.836 33.3533 169.23 33.46 169.79 33.46H171.13V35H169.49C168.476 35 167.716 34.7667 167.21 34.3C166.703 33.8333 166.45 33.0667 166.45 32V25.54H165.03V24.04H166.45V21.28H168.27V24.04H171.13V25.54H168.27ZM178.795 25.54H176.495V35H174.675V25.54H173.255V24.04H174.675V23.26C174.675 22.0333 174.988 21.14 175.615 20.58C176.255 20.0067 177.275 19.72 178.675 19.72V21.24C177.875 21.24 177.308 21.4 176.975 21.72C176.655 22.0267 176.495 22.54 176.495 23.26V24.04H178.795V25.54ZM186.697 35.18C185.67 35.18 184.737 34.9467 183.897 34.48C183.07 34.0133 182.417 33.3533 181.937 32.5C181.47 31.6333 181.237 30.6333 181.237 29.5C181.237 28.38 181.477 27.3933 181.957 26.54C182.45 25.6733 183.117 25.0133 183.957 24.56C184.797 24.0933 185.737 23.86 186.777 23.86C187.817 23.86 188.757 24.0933 189.597 24.56C190.437 25.0133 191.097 25.6667 191.577 26.52C192.07 27.3733 192.317 28.3667 192.317 29.5C192.317 30.6333 192.064 31.6333 191.557 32.5C191.064 33.3533 190.39 34.0133 189.537 34.48C188.684 34.9467 187.737 35.18 186.697 35.18ZM186.697 33.58C187.35 33.58 187.964 33.4267 188.537 33.12C189.11 32.8133 189.57 32.3533 189.917 31.74C190.277 31.1267 190.457 30.38 190.457 29.5C190.457 28.62 190.284 27.8733 189.937 27.26C189.59 26.6467 189.137 26.1933 188.577 25.9C188.017 25.5933 187.41 25.44 186.757 25.44C186.09 25.44 185.477 25.5933 184.917 25.9C184.37 26.1933 183.93 26.6467 183.597 27.26C183.264 27.8733 183.097 28.62 183.097 29.5C183.097 30.3933 183.257 31.1467 183.577 31.76C183.91 32.3733 184.35 32.8333 184.897 33.14C185.444 33.4333 186.044 33.58 186.697 33.58ZM197.53 20.2V35H195.71V20.2H197.53ZM202.572 22.26C202.225 22.26 201.932 22.14 201.692 21.9C201.452 21.66 201.332 21.3667 201.332 21.02C201.332 20.6733 201.452 20.38 201.692 20.14C201.932 19.9 202.225 19.78 202.572 19.78C202.905 19.78 203.185 19.9 203.412 20.14C203.652 20.38 203.772 20.6733 203.772 21.02C203.772 21.3667 203.652 21.66 203.412 21.9C203.185 22.14 202.905 22.26 202.572 22.26ZM203.452 24.04V35H201.632V24.04H203.452ZM212.334 35.18C211.307 35.18 210.374 34.9467 209.534 34.48C208.707 34.0133 208.054 33.3533 207.574 32.5C207.107 31.6333 206.874 30.6333 206.874 29.5C206.874 28.38 207.114 27.3933 207.594 26.54C208.087 25.6733 208.754 25.0133 209.594 24.56C210.434 24.0933 211.374 23.86 212.414 23.86C213.454 23.86 214.394 24.0933 215.234 24.56C216.074 25.0133 216.734 25.6667 217.214 26.52C217.707 27.3733 217.954 28.3667 217.954 29.5C217.954 30.6333 217.7 31.6333 217.194 32.5C216.7 33.3533 216.027 34.0133 215.174 34.48C214.32 34.9467 213.374 35.18 212.334 35.18ZM212.334 33.58C212.987 33.58 213.6 33.4267 214.174 33.12C214.747 32.8133 215.207 32.3533 215.554 31.74C215.914 31.1267 216.094 30.38 216.094 29.5C216.094 28.62 215.92 27.8733 215.574 27.26C215.227 26.6467 214.774 26.1933 214.214 25.9C213.654 25.5933 213.047 25.44 212.394 25.44C211.727 25.44 211.114 25.5933 210.554 25.9C210.007 26.1933 209.567 26.6467 209.234 27.26C208.9 27.8733 208.734 28.62 208.734 29.5C208.734 30.3933 208.894 31.1467 209.214 31.76C209.547 32.3733 209.987 32.8333 210.534 33.14C211.08 33.4333 211.68 33.58 212.334 33.58Z" fill="#FFE385"/>
</svg>
