<svg width="318" height="55" viewBox="0 0 318 55" fill="none" xmlns="http://www.w3.org/2000/svg">
<rect x="1.5" y="1.5" width="315" height="52" rx="26" stroke="#FFE385" stroke-width="3"/>
<path d="M57.2938 21.06V22.54H53.4938V35H51.6738V22.54H47.8538V21.06H57.2938ZM59.8541 29.48C59.8541 28.36 60.0808 27.38 60.5341 26.54C60.9875 25.6867 61.6075 25.0267 62.3941 24.56C63.1941 24.0933 64.0808 23.86 65.0541 23.86C66.0141 23.86 66.8475 24.0667 67.5541 24.48C68.2608 24.8933 68.7875 25.4133 69.1341 26.04V24.04H70.9741V35H69.1341V32.96C68.7741 33.6 68.2341 34.1333 67.5141 34.56C66.8075 34.9733 65.9808 35.18 65.0341 35.18C64.0608 35.18 63.1808 34.94 62.3941 34.46C61.6075 33.98 60.9875 33.3067 60.5341 32.44C60.0808 31.5733 59.8541 30.5867 59.8541 29.48ZM69.1341 29.5C69.1341 28.6733 68.9675 27.9533 68.6341 27.34C68.3008 26.7267 67.8475 26.26 67.2741 25.94C66.7141 25.6067 66.0941 25.44 65.4141 25.44C64.7341 25.44 64.1141 25.6 63.5541 25.92C62.9941 26.24 62.5475 26.7067 62.2141 27.32C61.8808 27.9333 61.7141 28.6533 61.7141 29.48C61.7141 30.32 61.8808 31.0533 62.2141 31.68C62.5475 32.2933 62.9941 32.7667 63.5541 33.1C64.1141 33.42 64.7341 33.58 65.4141 33.58C66.0941 33.58 66.7141 33.42 67.2741 33.1C67.8475 32.7667 68.3008 32.2933 68.6341 31.68C68.9675 31.0533 69.1341 30.3267 69.1341 29.5ZM76.8698 25.82C77.1898 25.1933 77.6431 24.7067 78.2298 24.36C78.8298 24.0133 79.5564 23.84 80.4098 23.84V25.72H79.9298C77.8898 25.72 76.8698 26.8267 76.8698 29.04V35H75.0498V24.04H76.8698V25.82ZM84.4907 22.26C84.144 22.26 83.8507 22.14 83.6107 21.9C83.384 21.66 83.2707 21.3667 83.2707 21.02C83.2707 20.6733 83.384 20.38 83.6107 20.14C83.8507 19.9 84.144 19.78 84.4907 19.78C84.8374 19.78 85.124 19.9 85.3507 20.14C85.5907 20.38 85.7107 20.6733 85.7107 21.02C85.7107 21.3667 85.5907 21.66 85.3507 21.9C85.124 22.14 84.8374 22.26 84.4907 22.26ZM85.3907 37.38C85.3907 38.3533 85.144 39.0667 84.6507 39.52C84.1574 39.9733 83.4374 40.2 82.4907 40.2H81.4307V38.66H82.1907C82.6974 38.66 83.0507 38.56 83.2507 38.36C83.464 38.16 83.5707 37.82 83.5707 37.34V24.04H85.3907V37.38ZM99.4716 29.1C99.4716 29.4467 99.4516 29.8133 99.4116 30.2H90.6516C90.7183 31.28 91.085 32.1267 91.7516 32.74C92.4316 33.34 93.2516 33.64 94.2116 33.64C94.9983 33.64 95.6516 33.46 96.1716 33.1C96.705 32.7267 97.0783 32.2333 97.2916 31.62H99.2516C98.9583 32.6733 98.3716 33.5333 97.4916 34.2C96.6116 34.8533 95.5183 35.18 94.2116 35.18C93.1716 35.18 92.2383 34.9467 91.4116 34.48C90.5983 34.0133 89.9583 33.3533 89.4916 32.5C89.025 31.6333 88.7916 30.6333 88.7916 29.5C88.7916 28.3667 89.0183 27.3733 89.4716 26.52C89.925 25.6667 90.5583 25.0133 91.3716 24.56C92.1983 24.0933 93.145 23.86 94.2116 23.86C95.2516 23.86 96.1716 24.0867 96.9716 24.54C97.7716 24.9933 98.385 25.62 98.8116 26.42C99.2516 27.2067 99.4716 28.1 99.4716 29.1ZM97.5916 28.72C97.5916 28.0267 97.4383 27.4333 97.1316 26.94C96.825 26.4333 96.405 26.0533 95.8716 25.8C95.3516 25.5333 94.7716 25.4 94.1316 25.4C93.2116 25.4 92.425 25.6933 91.7716 26.28C91.1316 26.8667 90.765 27.68 90.6716 28.72H97.5916ZM105.094 25.54V32C105.094 32.5333 105.207 32.9133 105.434 33.14C105.661 33.3533 106.054 33.46 106.614 33.46H107.954V35H106.314C105.301 35 104.541 34.7667 104.034 34.3C103.527 33.8333 103.274 33.0667 103.274 32V25.54H101.854V24.04H103.274V21.28H105.094V24.04H107.954V25.54H105.094ZM110.479 29.48C110.479 28.36 110.706 27.38 111.159 26.54C111.612 25.6867 112.232 25.0267 113.019 24.56C113.819 24.0933 114.706 23.86 115.679 23.86C116.639 23.86 117.472 24.0667 118.179 24.48C118.886 24.8933 119.412 25.4133 119.759 26.04V24.04H121.599V35H119.759V32.96C119.399 33.6 118.859 34.1333 118.139 34.56C117.432 34.9733 116.606 35.18 115.659 35.18C114.686 35.18 113.806 34.94 113.019 34.46C112.232 33.98 111.612 33.3067 111.159 32.44C110.706 31.5733 110.479 30.5867 110.479 29.48ZM119.759 29.5C119.759 28.6733 119.592 27.9533 119.259 27.34C118.926 26.7267 118.472 26.26 117.899 25.94C117.339 25.6067 116.719 25.44 116.039 25.44C115.359 25.44 114.739 25.6 114.179 25.92C113.619 26.24 113.172 26.7067 112.839 27.32C112.506 27.9333 112.339 28.6533 112.339 29.48C112.339 30.32 112.506 31.0533 112.839 31.68C113.172 32.2933 113.619 32.7667 114.179 33.1C114.739 33.42 115.359 33.58 116.039 33.58C116.719 33.58 117.339 33.42 117.899 33.1C118.472 32.7667 118.926 32.2933 119.259 31.68C119.592 31.0533 119.759 30.3267 119.759 29.5ZM129.555 35.18C128.715 35.18 127.961 35.04 127.295 34.76C126.628 34.4667 126.101 34.0667 125.715 33.56C125.328 33.04 125.115 32.4467 125.075 31.78H126.955C127.008 32.3267 127.261 32.7733 127.715 33.12C128.181 33.4667 128.788 33.64 129.535 33.64C130.228 33.64 130.775 33.4867 131.175 33.18C131.575 32.8733 131.775 32.4867 131.775 32.02C131.775 31.54 131.561 31.1867 131.135 30.96C130.708 30.72 130.048 30.4867 129.155 30.26C128.341 30.0467 127.675 29.8333 127.155 29.62C126.648 29.3933 126.208 29.0667 125.835 28.64C125.475 28.2 125.295 27.6267 125.295 26.92C125.295 26.36 125.461 25.8467 125.795 25.38C126.128 24.9133 126.601 24.5467 127.215 24.28C127.828 24 128.528 23.86 129.315 23.86C130.528 23.86 131.508 24.1667 132.255 24.78C133.001 25.3933 133.401 26.2333 133.455 27.3H131.635C131.595 26.7267 131.361 26.2667 130.935 25.92C130.521 25.5733 129.961 25.4 129.255 25.4C128.601 25.4 128.081 25.54 127.695 25.82C127.308 26.1 127.115 26.4667 127.115 26.92C127.115 27.28 127.228 27.58 127.455 27.82C127.695 28.0467 127.988 28.2333 128.335 28.38C128.695 28.5133 129.188 28.6667 129.815 28.84C130.601 29.0533 131.241 29.2667 131.735 29.48C132.228 29.68 132.648 29.9867 132.995 30.4C133.355 30.8133 133.541 31.3533 133.555 32.02C133.555 32.62 133.388 33.16 133.055 33.64C132.721 34.12 132.248 34.5 131.635 34.78C131.035 35.0467 130.341 35.18 129.555 35.18ZM145.276 21.06V35H143.456V21.06H145.276ZM154.718 23.84C156.051 23.84 157.131 24.2467 157.958 25.06C158.785 25.86 159.198 27.02 159.198 28.54V35H157.398V28.8C157.398 27.7067 157.125 26.8733 156.578 26.3C156.031 25.7133 155.285 25.42 154.338 25.42C153.378 25.42 152.611 25.72 152.038 26.32C151.478 26.92 151.198 27.7933 151.198 28.94V35H149.378V24.04H151.198V25.6C151.558 25.04 152.045 24.6067 152.658 24.3C153.285 23.9933 153.971 23.84 154.718 23.84ZM165.391 25.54V32C165.391 32.5333 165.504 32.9133 165.731 33.14C165.958 33.3533 166.351 33.46 166.911 33.46H168.251V35H166.611C165.598 35 164.838 34.7667 164.331 34.3C163.824 33.8333 163.571 33.0667 163.571 32V25.54H162.151V24.04H163.571V21.28H165.391V24.04H168.251V25.54H165.391ZM181.456 29.1C181.456 29.4467 181.436 29.8133 181.396 30.2H172.636C172.703 31.28 173.069 32.1267 173.736 32.74C174.416 33.34 175.236 33.64 176.196 33.64C176.983 33.64 177.636 33.46 178.156 33.1C178.689 32.7267 179.063 32.2333 179.276 31.62H181.236C180.943 32.6733 180.356 33.5333 179.476 34.2C178.596 34.8533 177.503 35.18 176.196 35.18C175.156 35.18 174.223 34.9467 173.396 34.48C172.583 34.0133 171.943 33.3533 171.476 32.5C171.009 31.6333 170.776 30.6333 170.776 29.5C170.776 28.3667 171.003 27.3733 171.456 26.52C171.909 25.6667 172.543 25.0133 173.356 24.56C174.183 24.0933 175.129 23.86 176.196 23.86C177.236 23.86 178.156 24.0867 178.956 24.54C179.756 24.9933 180.369 25.62 180.796 26.42C181.236 27.2067 181.456 28.1 181.456 29.1ZM179.576 28.72C179.576 28.0267 179.423 27.4333 179.116 26.94C178.809 26.4333 178.389 26.0533 177.856 25.8C177.336 25.5333 176.756 25.4 176.116 25.4C175.196 25.4 174.409 25.6933 173.756 26.28C173.116 26.8667 172.749 27.68 172.656 28.72H179.576ZM186.678 25.82C186.998 25.1933 187.452 24.7067 188.038 24.36C188.638 24.0133 189.365 23.84 190.218 23.84V25.72H189.738C187.698 25.72 186.678 26.8267 186.678 29.04V35H184.858V24.04H186.678V25.82ZM192.639 29.48C192.639 28.36 192.866 27.38 193.319 26.54C193.773 25.6867 194.393 25.0267 195.179 24.56C195.979 24.0933 196.866 23.86 197.839 23.86C198.799 23.86 199.633 24.0667 200.339 24.48C201.046 24.8933 201.573 25.4133 201.919 26.04V24.04H203.759V35H201.919V32.96C201.559 33.6 201.019 34.1333 200.299 34.56C199.593 34.9733 198.766 35.18 197.819 35.18C196.846 35.18 195.966 34.94 195.179 34.46C194.393 33.98 193.773 33.3067 193.319 32.44C192.866 31.5733 192.639 30.5867 192.639 29.48ZM201.919 29.5C201.919 28.6733 201.753 27.9533 201.419 27.34C201.086 26.7267 200.633 26.26 200.059 25.94C199.499 25.6067 198.879 25.44 198.199 25.44C197.519 25.44 196.899 25.6 196.339 25.92C195.779 26.24 195.333 26.7067 194.999 27.32C194.666 27.9333 194.499 28.6533 194.499 29.48C194.499 30.32 194.666 31.0533 194.999 31.68C195.333 32.2933 195.779 32.7667 196.339 33.1C196.899 33.42 197.519 33.58 198.199 33.58C198.879 33.58 199.499 33.42 200.059 33.1C200.633 32.7667 201.086 32.2933 201.419 31.68C201.753 31.0533 201.919 30.3267 201.919 29.5ZM207.155 29.5C207.155 28.3667 207.382 27.38 207.835 26.54C208.288 25.6867 208.915 25.0267 209.715 24.56C210.528 24.0933 211.455 23.86 212.495 23.86C213.842 23.86 214.948 24.1867 215.815 24.84C216.695 25.4933 217.275 26.4 217.555 27.56H215.595C215.408 26.8933 215.042 26.3667 214.495 25.98C213.962 25.5933 213.295 25.4 212.495 25.4C211.455 25.4 210.615 25.76 209.975 26.48C209.335 27.1867 209.015 28.1933 209.015 29.5C209.015 30.82 209.335 31.84 209.975 32.56C210.615 33.28 211.455 33.64 212.495 33.64C213.295 33.64 213.962 33.4533 214.495 33.08C215.028 32.7067 215.395 32.1733 215.595 31.48H217.555C217.262 32.6 216.675 33.5 215.795 34.18C214.915 34.8467 213.815 35.18 212.495 35.18C211.455 35.18 210.528 34.9467 209.715 34.48C208.915 34.0133 208.288 33.3533 207.835 32.5C207.382 31.6467 207.155 30.6467 207.155 29.5ZM223.203 25.54V32C223.203 32.5333 223.317 32.9133 223.543 33.14C223.77 33.3533 224.163 33.46 224.723 33.46H226.063V35H224.423C223.41 35 222.65 34.7667 222.143 34.3C221.637 33.8333 221.383 33.0667 221.383 32V25.54H219.963V24.04H221.383V21.28H223.203V24.04H226.063V25.54H223.203ZM230.209 22.26C229.862 22.26 229.569 22.14 229.329 21.9C229.089 21.66 228.969 21.3667 228.969 21.02C228.969 20.6733 229.089 20.38 229.329 20.14C229.569 19.9 229.862 19.78 230.209 19.78C230.542 19.78 230.822 19.9 231.049 20.14C231.289 20.38 231.409 20.6733 231.409 21.02C231.409 21.3667 231.289 21.66 231.049 21.9C230.822 22.14 230.542 22.26 230.209 22.26ZM231.089 24.04V35H229.269V24.04H231.089ZM239.27 33.32L242.67 24.04H244.61L240.31 35H238.19L233.89 24.04H235.85L239.27 33.32ZM246.721 29.48C246.721 28.36 246.948 27.38 247.401 26.54C247.855 25.6867 248.475 25.0267 249.261 24.56C250.061 24.0933 250.948 23.86 251.921 23.86C252.881 23.86 253.715 24.0667 254.421 24.48C255.128 24.8933 255.655 25.4133 256.001 26.04V24.04H257.841V35H256.001V32.96C255.641 33.6 255.101 34.1333 254.381 34.56C253.675 34.9733 252.848 35.18 251.901 35.18C250.928 35.18 250.048 34.94 249.261 34.46C248.475 33.98 247.855 33.3067 247.401 32.44C246.948 31.5733 246.721 30.5867 246.721 29.48ZM256.001 29.5C256.001 28.6733 255.835 27.9533 255.501 27.34C255.168 26.7267 254.715 26.26 254.141 25.94C253.581 25.6067 252.961 25.44 252.281 25.44C251.601 25.44 250.981 25.6 250.421 25.92C249.861 26.24 249.415 26.7067 249.081 27.32C248.748 27.9333 248.581 28.6533 248.581 29.48C248.581 30.32 248.748 31.0533 249.081 31.68C249.415 32.2933 249.861 32.7667 250.421 33.1C250.981 33.42 251.601 33.58 252.281 33.58C252.961 33.58 253.581 33.42 254.141 33.1C254.715 32.7667 255.168 32.2933 255.501 31.68C255.835 31.0533 256.001 30.3267 256.001 29.5ZM265.797 35.18C264.957 35.18 264.204 35.04 263.537 34.76C262.87 34.4667 262.344 34.0667 261.957 33.56C261.57 33.04 261.357 32.4467 261.317 31.78H263.197C263.25 32.3267 263.504 32.7733 263.957 33.12C264.424 33.4667 265.03 33.64 265.777 33.64C266.47 33.64 267.017 33.4867 267.417 33.18C267.817 32.8733 268.017 32.4867 268.017 32.02C268.017 31.54 267.804 31.1867 267.377 30.96C266.95 30.72 266.29 30.4867 265.397 30.26C264.584 30.0467 263.917 29.8333 263.397 29.62C262.89 29.3933 262.45 29.0667 262.077 28.64C261.717 28.2 261.537 27.6267 261.537 26.92C261.537 26.36 261.704 25.8467 262.037 25.38C262.37 24.9133 262.844 24.5467 263.457 24.28C264.07 24 264.77 23.86 265.557 23.86C266.77 23.86 267.75 24.1667 268.497 24.78C269.244 25.3933 269.644 26.2333 269.697 27.3H267.877C267.837 26.7267 267.604 26.2667 267.177 25.92C266.764 25.5733 266.204 25.4 265.497 25.4C264.844 25.4 264.324 25.54 263.937 25.82C263.55 26.1 263.357 26.4667 263.357 26.92C263.357 27.28 263.47 27.58 263.697 27.82C263.937 28.0467 264.23 28.2333 264.577 28.38C264.937 28.5133 265.43 28.6667 266.057 28.84C266.844 29.0533 267.484 29.2667 267.977 29.48C268.47 29.68 268.89 29.9867 269.237 30.4C269.597 30.8133 269.784 31.3533 269.797 32.02C269.797 32.62 269.63 33.16 269.297 33.64C268.964 34.12 268.49 34.5 267.877 34.78C267.277 35.0467 266.584 35.18 265.797 35.18Z" fill="#FFE385"/>
</svg>
