<svg width="318" height="55" viewBox="0 0 318 55" fill="none" xmlns="http://www.w3.org/2000/svg">
<rect x="1.5" y="1.5" width="315" height="52" rx="26" stroke="#FFE385" stroke-width="3"/>
<path d="M119.569 25.14C119.569 26.3 119.169 27.2667 118.369 28.04C117.582 28.8 116.376 29.18 114.749 29.18H112.069V35H110.249V21.06H114.749C116.322 21.06 117.516 21.44 118.329 22.2C119.156 22.96 119.569 23.94 119.569 25.14ZM114.749 27.68C115.762 27.68 116.509 27.46 116.989 27.02C117.469 26.58 117.709 25.9533 117.709 25.14C117.709 23.42 116.722 22.56 114.749 22.56H112.069V27.68H114.749ZM127.611 35.18C126.584 35.18 125.651 34.9467 124.811 34.48C123.984 34.0133 123.331 33.3533 122.851 32.5C122.384 31.6333 122.151 30.6333 122.151 29.5C122.151 28.38 122.391 27.3933 122.871 26.54C123.364 25.6733 124.031 25.0133 124.871 24.56C125.711 24.0933 126.651 23.86 127.691 23.86C128.731 23.86 129.671 24.0933 130.511 24.56C131.351 25.0133 132.011 25.6667 132.491 26.52C132.984 27.3733 133.231 28.3667 133.231 29.5C133.231 30.6333 132.978 31.6333 132.471 32.5C131.978 33.3533 131.304 34.0133 130.451 34.48C129.598 34.9467 128.651 35.18 127.611 35.18ZM127.611 33.58C128.264 33.58 128.878 33.4267 129.451 33.12C130.024 32.8133 130.484 32.3533 130.831 31.74C131.191 31.1267 131.371 30.38 131.371 29.5C131.371 28.62 131.198 27.8733 130.851 27.26C130.504 26.6467 130.051 26.1933 129.491 25.9C128.931 25.5933 128.324 25.44 127.671 25.44C127.004 25.44 126.391 25.5933 125.831 25.9C125.284 26.1933 124.844 26.6467 124.511 27.26C124.178 27.8733 124.011 28.62 124.011 29.5C124.011 30.3933 124.171 31.1467 124.491 31.76C124.824 32.3733 125.264 32.8333 125.811 33.14C126.358 33.4333 126.958 33.58 127.611 33.58ZM138.444 25.82C138.764 25.1933 139.217 24.7067 139.804 24.36C140.404 24.0133 141.131 23.84 141.984 23.84V25.72H141.504C139.464 25.72 138.444 26.8267 138.444 29.04V35H136.624V24.04H138.444V25.82ZM147.305 25.54V32C147.305 32.5333 147.418 32.9133 147.645 33.14C147.872 33.3533 148.265 33.46 148.825 33.46H150.165V35H148.525C147.512 35 146.752 34.7667 146.245 34.3C145.738 33.8333 145.485 33.0667 145.485 32V25.54H144.065V24.04H145.485V21.28H147.305V24.04H150.165V25.54H147.305ZM157.83 25.54H155.53V35H153.71V25.54H152.29V24.04H153.71V23.26C153.71 22.0333 154.023 21.14 154.65 20.58C155.29 20.0067 156.31 19.72 157.71 19.72V21.24C156.91 21.24 156.343 21.4 156.01 21.72C155.69 22.0267 155.53 22.54 155.53 23.26V24.04H157.83V25.54ZM165.732 35.18C164.705 35.18 163.772 34.9467 162.932 34.48C162.105 34.0133 161.452 33.3533 160.972 32.5C160.505 31.6333 160.272 30.6333 160.272 29.5C160.272 28.38 160.512 27.3933 160.992 26.54C161.485 25.6733 162.152 25.0133 162.992 24.56C163.832 24.0933 164.772 23.86 165.812 23.86C166.852 23.86 167.792 24.0933 168.632 24.56C169.472 25.0133 170.132 25.6667 170.612 26.52C171.105 27.3733 171.352 28.3667 171.352 29.5C171.352 30.6333 171.099 31.6333 170.592 32.5C170.099 33.3533 169.425 34.0133 168.572 34.48C167.719 34.9467 166.772 35.18 165.732 35.18ZM165.732 33.58C166.385 33.58 166.999 33.4267 167.572 33.12C168.145 32.8133 168.605 32.3533 168.952 31.74C169.312 31.1267 169.492 30.38 169.492 29.5C169.492 28.62 169.319 27.8733 168.972 27.26C168.625 26.6467 168.172 26.1933 167.612 25.9C167.052 25.5933 166.445 25.44 165.792 25.44C165.125 25.44 164.512 25.5933 163.952 25.9C163.405 26.1933 162.965 26.6467 162.632 27.26C162.299 27.8733 162.132 28.62 162.132 29.5C162.132 30.3933 162.292 31.1467 162.612 31.76C162.945 32.3733 163.385 32.8333 163.932 33.14C164.479 33.4333 165.079 33.58 165.732 33.58ZM176.565 20.2V35H174.745V20.2H176.565ZM181.607 22.26C181.26 22.26 180.967 22.14 180.727 21.9C180.487 21.66 180.367 21.3667 180.367 21.02C180.367 20.6733 180.487 20.38 180.727 20.14C180.967 19.9 181.26 19.78 181.607 19.78C181.94 19.78 182.22 19.9 182.447 20.14C182.687 20.38 182.807 20.6733 182.807 21.02C182.807 21.3667 182.687 21.66 182.447 21.9C182.22 22.14 181.94 22.26 181.607 22.26ZM182.487 24.04V35H180.667V24.04H182.487ZM191.369 35.18C190.342 35.18 189.409 34.9467 188.569 34.48C187.742 34.0133 187.089 33.3533 186.609 32.5C186.142 31.6333 185.909 30.6333 185.909 29.5C185.909 28.38 186.149 27.3933 186.629 26.54C187.122 25.6733 187.789 25.0133 188.629 24.56C189.469 24.0933 190.409 23.86 191.449 23.86C192.489 23.86 193.429 24.0933 194.269 24.56C195.109 25.0133 195.769 25.6667 196.249 26.52C196.742 27.3733 196.989 28.3667 196.989 29.5C196.989 30.6333 196.735 31.6333 196.229 32.5C195.735 33.3533 195.062 34.0133 194.209 34.48C193.355 34.9467 192.409 35.18 191.369 35.18ZM191.369 33.58C192.022 33.58 192.635 33.4267 193.209 33.12C193.782 32.8133 194.242 32.3533 194.589 31.74C194.949 31.1267 195.129 30.38 195.129 29.5C195.129 28.62 194.955 27.8733 194.609 27.26C194.262 26.6467 193.809 26.1933 193.249 25.9C192.689 25.5933 192.082 25.44 191.429 25.44C190.762 25.44 190.149 25.5933 189.589 25.9C189.042 26.1933 188.602 26.6467 188.269 27.26C187.935 27.8733 187.769 28.62 187.769 29.5C187.769 30.3933 187.929 31.1467 188.249 31.76C188.582 32.3733 189.022 32.8333 189.569 33.14C190.115 33.4333 190.715 33.58 191.369 33.58ZM204.262 35.18C203.422 35.18 202.668 35.04 202.002 34.76C201.335 34.4667 200.808 34.0667 200.422 33.56C200.035 33.04 199.822 32.4467 199.782 31.78H201.662C201.715 32.3267 201.968 32.7733 202.422 33.12C202.888 33.4667 203.495 33.64 204.242 33.64C204.935 33.64 205.482 33.4867 205.882 33.18C206.282 32.8733 206.482 32.4867 206.482 32.02C206.482 31.54 206.268 31.1867 205.842 30.96C205.415 30.72 204.755 30.4867 203.862 30.26C203.048 30.0467 202.382 29.8333 201.862 29.62C201.355 29.3933 200.915 29.0667 200.542 28.64C200.182 28.2 200.002 27.6267 200.002 26.92C200.002 26.36 200.168 25.8467 200.502 25.38C200.835 24.9133 201.308 24.5467 201.922 24.28C202.535 24 203.235 23.86 204.022 23.86C205.235 23.86 206.215 24.1667 206.962 24.78C207.708 25.3933 208.108 26.2333 208.162 27.3H206.342C206.302 26.7267 206.068 26.2667 205.642 25.92C205.228 25.5733 204.668 25.4 203.962 25.4C203.308 25.4 202.788 25.54 202.402 25.82C202.015 26.1 201.822 26.4667 201.822 26.92C201.822 27.28 201.935 27.58 202.162 27.82C202.402 28.0467 202.695 28.2333 203.042 28.38C203.402 28.5133 203.895 28.6667 204.522 28.84C205.308 29.0533 205.948 29.2667 206.442 29.48C206.935 29.68 207.355 29.9867 207.702 30.4C208.062 30.8133 208.248 31.3533 208.262 32.02C208.262 32.62 208.095 33.16 207.762 33.64C207.428 34.12 206.955 34.5 206.342 34.78C205.742 35.0467 205.048 35.18 204.262 35.18Z" fill="#FFE385"/>
</svg>
