<svg width="318" height="55" viewBox="0 0 318 55" fill="none" xmlns="http://www.w3.org/2000/svg">
<rect x="1.5" y="1.5" width="315" height="52" rx="26" stroke="#FFE385" stroke-width="3"/>
<path d="M40.5358 28.02C40.5358 26.66 40.8424 25.44 41.4558 24.36C42.0691 23.2667 42.9024 22.4133 43.9558 21.8C45.0224 21.1867 46.2024 20.88 47.4958 20.88C49.0158 20.88 50.3424 21.2467 51.4758 21.98C52.6091 22.7133 53.4358 23.7533 53.9558 25.1H51.7758C51.3891 24.26 50.8291 23.6133 50.0958 23.16C49.3758 22.7067 48.5091 22.48 47.4958 22.48C46.5224 22.48 45.6491 22.7067 44.8758 23.16C44.1024 23.6133 43.4958 24.26 43.0558 25.1C42.6158 25.9267 42.3958 26.9 42.3958 28.02C42.3958 29.1267 42.6158 30.1 43.0558 30.94C43.4958 31.7667 44.1024 32.4067 44.8758 32.86C45.6491 33.3133 46.5224 33.54 47.4958 33.54C48.5091 33.54 49.3758 33.32 50.0958 32.88C50.8291 32.4267 51.3891 31.78 51.7758 30.94H53.9558C53.4358 32.2733 52.6091 33.3067 51.4758 34.04C50.3424 34.76 49.0158 35.12 47.4958 35.12C46.2024 35.12 45.0224 34.82 43.9558 34.22C42.9024 33.6067 42.0691 32.76 41.4558 31.68C40.8424 30.6 40.5358 29.38 40.5358 28.02ZM62.445 35.18C61.4183 35.18 60.485 34.9467 59.645 34.48C58.8183 34.0133 58.165 33.3533 57.685 32.5C57.2183 31.6333 56.985 30.6333 56.985 29.5C56.985 28.38 57.225 27.3933 57.705 26.54C58.1983 25.6733 58.865 25.0133 59.705 24.56C60.545 24.0933 61.485 23.86 62.525 23.86C63.565 23.86 64.505 24.0933 65.345 24.56C66.185 25.0133 66.845 25.6667 67.325 26.52C67.8183 27.3733 68.065 28.3667 68.065 29.5C68.065 30.6333 67.8117 31.6333 67.305 32.5C66.8117 33.3533 66.1383 34.0133 65.285 34.48C64.4317 34.9467 63.485 35.18 62.445 35.18ZM62.445 33.58C63.0983 33.58 63.7117 33.4267 64.285 33.12C64.8583 32.8133 65.3183 32.3533 65.665 31.74C66.025 31.1267 66.205 30.38 66.205 29.5C66.205 28.62 66.0317 27.8733 65.685 27.26C65.3383 26.6467 64.885 26.1933 64.325 25.9C63.765 25.5933 63.1583 25.44 62.505 25.44C61.8383 25.44 61.225 25.5933 60.665 25.9C60.1183 26.1933 59.6783 26.6467 59.345 27.26C59.0117 27.8733 58.845 28.62 58.845 29.5C58.845 30.3933 59.005 31.1467 59.325 31.76C59.6583 32.3733 60.0983 32.8333 60.645 33.14C61.1917 33.4333 61.7917 33.58 62.445 33.58ZM76.798 23.84C78.1313 23.84 79.2113 24.2467 80.038 25.06C80.8646 25.86 81.278 27.02 81.278 28.54V35H79.478V28.8C79.478 27.7067 79.2046 26.8733 78.658 26.3C78.1113 25.7133 77.3646 25.42 76.418 25.42C75.458 25.42 74.6913 25.72 74.118 26.32C73.558 26.92 73.278 27.7933 73.278 28.94V35H71.458V24.04H73.278V25.6C73.638 25.04 74.1246 24.6067 74.738 24.3C75.3646 23.9933 76.0513 23.84 76.798 23.84ZM87.4709 25.54V32C87.4709 32.5333 87.5843 32.9133 87.8109 33.14C88.0376 33.3533 88.4309 33.46 88.9909 33.46H90.3309V35H88.6909C87.6776 35 86.9176 34.7667 86.4109 34.3C85.9043 33.8333 85.6509 33.0667 85.6509 32V25.54H84.2309V24.04H85.6509V21.28H87.4709V24.04H90.3309V25.54H87.4709ZM103.536 29.1C103.536 29.4467 103.516 29.8133 103.476 30.2H94.7161C94.7828 31.28 95.1494 32.1267 95.8161 32.74C96.4961 33.34 97.3161 33.64 98.2761 33.64C99.0628 33.64 99.7161 33.46 100.236 33.1C100.769 32.7267 101.143 32.2333 101.356 31.62H103.316C103.023 32.6733 102.436 33.5333 101.556 34.2C100.676 34.8533 99.5828 35.18 98.2761 35.18C97.2361 35.18 96.3028 34.9467 95.4761 34.48C94.6628 34.0133 94.0228 33.3533 93.5561 32.5C93.0894 31.6333 92.8561 30.6333 92.8561 29.5C92.8561 28.3667 93.0828 27.3733 93.5361 26.52C93.9894 25.6667 94.6228 25.0133 95.4361 24.56C96.2628 24.0933 97.2094 23.86 98.2761 23.86C99.3161 23.86 100.236 24.0867 101.036 24.54C101.836 24.9933 102.449 25.62 102.876 26.42C103.316 27.2067 103.536 28.1 103.536 29.1ZM101.656 28.72C101.656 28.0267 101.503 27.4333 101.196 26.94C100.889 26.4333 100.469 26.0533 99.9361 25.8C99.4161 25.5333 98.8361 25.4 98.1961 25.4C97.2761 25.4 96.4894 25.6933 95.8361 26.28C95.1961 26.8667 94.8294 27.68 94.7361 28.72H101.656ZM112.278 23.84C113.612 23.84 114.692 24.2467 115.518 25.06C116.345 25.86 116.758 27.02 116.758 28.54V35H114.958V28.8C114.958 27.7067 114.685 26.8733 114.138 26.3C113.592 25.7133 112.845 25.42 111.898 25.42C110.938 25.42 110.172 25.72 109.598 26.32C109.038 26.92 108.758 27.7933 108.758 28.94V35H106.938V24.04H108.758V25.6C109.118 25.04 109.605 24.6067 110.218 24.3C110.845 23.9933 111.532 23.84 112.278 23.84ZM121.671 22.26C121.325 22.26 121.031 22.14 120.791 21.9C120.551 21.66 120.431 21.3667 120.431 21.02C120.431 20.6733 120.551 20.38 120.791 20.14C121.031 19.9 121.325 19.78 121.671 19.78C122.005 19.78 122.285 19.9 122.511 20.14C122.751 20.38 122.871 20.6733 122.871 21.02C122.871 21.3667 122.751 21.66 122.511 21.9C122.285 22.14 122.005 22.26 121.671 22.26ZM122.551 24.04V35H120.731V24.04H122.551ZM125.973 29.48C125.973 28.36 126.2 27.38 126.653 26.54C127.107 25.6867 127.727 25.0267 128.513 24.56C129.313 24.0933 130.207 23.86 131.193 23.86C132.047 23.86 132.84 24.06 133.573 24.46C134.307 24.8467 134.867 25.36 135.253 26V20.2H137.093V35H135.253V32.94C134.893 33.5933 134.36 34.1333 133.653 34.56C132.947 34.9733 132.12 35.18 131.173 35.18C130.2 35.18 129.313 34.94 128.513 34.46C127.727 33.98 127.107 33.3067 126.653 32.44C126.2 31.5733 125.973 30.5867 125.973 29.48ZM135.253 29.5C135.253 28.6733 135.087 27.9533 134.753 27.34C134.42 26.7267 133.967 26.26 133.393 25.94C132.833 25.6067 132.213 25.44 131.533 25.44C130.853 25.44 130.233 25.6 129.673 25.92C129.113 26.24 128.667 26.7067 128.333 27.32C128 27.9333 127.833 28.6533 127.833 29.48C127.833 30.32 128 31.0533 128.333 31.68C128.667 32.2933 129.113 32.7667 129.673 33.1C130.233 33.42 130.853 33.58 131.533 33.58C132.213 33.58 132.833 33.42 133.393 33.1C133.967 32.7667 134.42 32.2933 134.753 31.68C135.087 31.0533 135.253 30.3267 135.253 29.5ZM145.949 35.18C144.922 35.18 143.989 34.9467 143.149 34.48C142.322 34.0133 141.669 33.3533 141.189 32.5C140.722 31.6333 140.489 30.6333 140.489 29.5C140.489 28.38 140.729 27.3933 141.209 26.54C141.702 25.6733 142.369 25.0133 143.209 24.56C144.049 24.0933 144.989 23.86 146.029 23.86C147.069 23.86 148.009 24.0933 148.849 24.56C149.689 25.0133 150.349 25.6667 150.829 26.52C151.322 27.3733 151.569 28.3667 151.569 29.5C151.569 30.6333 151.316 31.6333 150.809 32.5C150.316 33.3533 149.642 34.0133 148.789 34.48C147.936 34.9467 146.989 35.18 145.949 35.18ZM145.949 33.58C146.602 33.58 147.216 33.4267 147.789 33.12C148.362 32.8133 148.822 32.3533 149.169 31.74C149.529 31.1267 149.709 30.38 149.709 29.5C149.709 28.62 149.536 27.8733 149.189 27.26C148.842 26.6467 148.389 26.1933 147.829 25.9C147.269 25.5933 146.662 25.44 146.009 25.44C145.342 25.44 144.729 25.5933 144.169 25.9C143.622 26.1933 143.182 26.6467 142.849 27.26C142.516 27.8733 142.349 28.62 142.349 29.5C142.349 30.3933 142.509 31.1467 142.829 31.76C143.162 32.3733 143.602 32.8333 144.149 33.14C144.696 33.4333 145.296 33.58 145.949 33.58ZM163.114 26.06C163.474 25.4333 164.007 24.9133 164.714 24.5C165.434 24.0733 166.267 23.86 167.214 23.86C168.187 23.86 169.067 24.0933 169.854 24.56C170.654 25.0267 171.281 25.6867 171.734 26.54C172.187 27.38 172.414 28.36 172.414 29.48C172.414 30.5867 172.187 31.5733 171.734 32.44C171.281 33.3067 170.654 33.98 169.854 34.46C169.067 34.94 168.187 35.18 167.214 35.18C166.281 35.18 165.454 34.9733 164.734 34.56C164.027 34.1333 163.487 33.6067 163.114 32.98V40.2H161.294V24.04H163.114V26.06ZM170.554 29.48C170.554 28.6533 170.387 27.9333 170.054 27.32C169.721 26.7067 169.267 26.24 168.694 25.92C168.134 25.6 167.514 25.44 166.834 25.44C166.167 25.44 165.547 25.6067 164.974 25.94C164.414 26.26 163.961 26.7333 163.614 27.36C163.281 27.9733 163.114 28.6867 163.114 29.5C163.114 30.3267 163.281 31.0533 163.614 31.68C163.961 32.2933 164.414 32.7667 164.974 33.1C165.547 33.42 166.167 33.58 166.834 33.58C167.514 33.58 168.134 33.42 168.694 33.1C169.267 32.7667 169.721 32.2933 170.054 31.68C170.387 31.0533 170.554 30.32 170.554 29.48ZM175.13 29.48C175.13 28.36 175.356 27.38 175.81 26.54C176.263 25.6867 176.883 25.0267 177.67 24.56C178.47 24.0933 179.356 23.86 180.33 23.86C181.29 23.86 182.123 24.0667 182.83 24.48C183.536 24.8933 184.063 25.4133 184.41 26.04V24.04H186.25V35H184.41V32.96C184.05 33.6 183.51 34.1333 182.79 34.56C182.083 34.9733 181.256 35.18 180.31 35.18C179.336 35.18 178.456 34.94 177.67 34.46C176.883 33.98 176.263 33.3067 175.81 32.44C175.356 31.5733 175.13 30.5867 175.13 29.48ZM184.41 29.5C184.41 28.6733 184.243 27.9533 183.91 27.34C183.576 26.7267 183.123 26.26 182.55 25.94C181.99 25.6067 181.37 25.44 180.69 25.44C180.01 25.44 179.39 25.6 178.83 25.92C178.27 26.24 177.823 26.7067 177.49 27.32C177.156 27.9333 176.99 28.6533 176.99 29.48C176.99 30.32 177.156 31.0533 177.49 31.68C177.823 32.2933 178.27 32.7667 178.83 33.1C179.39 33.42 180.01 33.58 180.69 33.58C181.37 33.58 181.99 33.42 182.55 33.1C183.123 32.7667 183.576 32.2933 183.91 31.68C184.243 31.0533 184.41 30.3267 184.41 29.5ZM192.145 25.82C192.465 25.1933 192.918 24.7067 193.505 24.36C194.105 24.0133 194.832 23.84 195.685 23.84V25.72H195.205C193.165 25.72 192.145 26.8267 192.145 29.04V35H190.325V24.04H192.145V25.82ZM198.106 29.48C198.106 28.36 198.333 27.38 198.786 26.54C199.239 25.6867 199.859 25.0267 200.646 24.56C201.446 24.0933 202.333 23.86 203.306 23.86C204.266 23.86 205.099 24.0667 205.806 24.48C206.513 24.8933 207.039 25.4133 207.386 26.04V24.04H209.226V35H207.386V32.96C207.026 33.6 206.486 34.1333 205.766 34.56C205.059 34.9733 204.233 35.18 203.286 35.18C202.313 35.18 201.433 34.94 200.646 34.46C199.859 33.98 199.239 33.3067 198.786 32.44C198.333 31.5733 198.106 30.5867 198.106 29.48ZM207.386 29.5C207.386 28.6733 207.219 27.9533 206.886 27.34C206.553 26.7267 206.099 26.26 205.526 25.94C204.966 25.6067 204.346 25.44 203.666 25.44C202.986 25.44 202.366 25.6 201.806 25.92C201.246 26.24 200.799 26.7067 200.466 27.32C200.133 27.9333 199.966 28.6533 199.966 29.48C199.966 30.32 200.133 31.0533 200.466 31.68C200.799 32.2933 201.246 32.7667 201.806 33.1C202.366 33.42 202.986 33.58 203.666 33.58C204.346 33.58 204.966 33.42 205.526 33.1C206.099 32.7667 206.553 32.2933 206.886 31.68C207.219 31.0533 207.386 30.3267 207.386 29.5ZM221.454 25.82C221.774 25.1933 222.227 24.7067 222.814 24.36C223.414 24.0133 224.14 23.84 224.994 23.84V25.72H224.514C222.474 25.72 221.454 26.8267 221.454 29.04V35H219.634V24.04H221.454V25.82ZM238.095 29.1C238.095 29.4467 238.075 29.8133 238.035 30.2H229.275C229.341 31.28 229.708 32.1267 230.375 32.74C231.055 33.34 231.875 33.64 232.835 33.64C233.621 33.64 234.275 33.46 234.795 33.1C235.328 32.7267 235.701 32.2333 235.915 31.62H237.875C237.581 32.6733 236.995 33.5333 236.115 34.2C235.235 34.8533 234.141 35.18 232.835 35.18C231.795 35.18 230.861 34.9467 230.035 34.48C229.221 34.0133 228.581 33.3533 228.115 32.5C227.648 31.6333 227.415 30.6333 227.415 29.5C227.415 28.3667 227.641 27.3733 228.095 26.52C228.548 25.6667 229.181 25.0133 229.995 24.56C230.821 24.0933 231.768 23.86 232.835 23.86C233.875 23.86 234.795 24.0867 235.595 24.54C236.395 24.9933 237.008 25.62 237.435 26.42C237.875 27.2067 238.095 28.1 238.095 29.1ZM236.215 28.72C236.215 28.0267 236.061 27.4333 235.755 26.94C235.448 26.4333 235.028 26.0533 234.495 25.8C233.975 25.5333 233.395 25.4 232.755 25.4C231.835 25.4 231.048 25.6933 230.395 26.28C229.755 26.8667 229.388 27.68 229.295 28.72H236.215ZM240.817 29.48C240.817 28.36 241.044 27.38 241.497 26.54C241.95 25.6867 242.57 25.0267 243.357 24.56C244.157 24.0933 245.05 23.86 246.037 23.86C246.89 23.86 247.684 24.06 248.417 24.46C249.15 24.8467 249.71 25.36 250.097 26V20.2H251.937V35H250.097V32.94C249.737 33.5933 249.204 34.1333 248.497 34.56C247.79 34.9733 246.964 35.18 246.017 35.18C245.044 35.18 244.157 34.94 243.357 34.46C242.57 33.98 241.95 33.3067 241.497 32.44C241.044 31.5733 240.817 30.5867 240.817 29.48ZM250.097 29.5C250.097 28.6733 249.93 27.9533 249.597 27.34C249.264 26.7267 248.81 26.26 248.237 25.94C247.677 25.6067 247.057 25.44 246.377 25.44C245.697 25.44 245.077 25.6 244.517 25.92C243.957 26.24 243.51 26.7067 243.177 27.32C242.844 27.9333 242.677 28.6533 242.677 29.48C242.677 30.32 242.844 31.0533 243.177 31.68C243.51 32.2933 243.957 32.7667 244.517 33.1C245.077 33.42 245.697 33.58 246.377 33.58C247.057 33.58 247.677 33.42 248.237 33.1C248.81 32.7667 249.264 32.2933 249.597 31.68C249.93 31.0533 250.097 30.3267 250.097 29.5ZM266.013 29.1C266.013 29.4467 265.993 29.8133 265.953 30.2H257.193C257.259 31.28 257.626 32.1267 258.293 32.74C258.973 33.34 259.793 33.64 260.753 33.64C261.539 33.64 262.193 33.46 262.713 33.1C263.246 32.7267 263.619 32.2333 263.833 31.62H265.793C265.499 32.6733 264.913 33.5333 264.033 34.2C263.153 34.8533 262.059 35.18 260.753 35.18C259.713 35.18 258.779 34.9467 257.953 34.48C257.139 34.0133 256.499 33.3533 256.033 32.5C255.566 31.6333 255.333 30.6333 255.333 29.5C255.333 28.3667 255.559 27.3733 256.013 26.52C256.466 25.6667 257.099 25.0133 257.913 24.56C258.739 24.0933 259.686 23.86 260.753 23.86C261.793 23.86 262.713 24.0867 263.513 24.54C264.313 24.9933 264.926 25.62 265.353 26.42C265.793 27.2067 266.013 28.1 266.013 29.1ZM264.133 28.72C264.133 28.0267 263.979 27.4333 263.673 26.94C263.366 26.4333 262.946 26.0533 262.413 25.8C261.893 25.5333 261.313 25.4 260.673 25.4C259.753 25.4 258.966 25.6933 258.313 26.28C257.673 26.8667 257.306 27.68 257.213 28.72H264.133ZM273.295 35.18C272.455 35.18 271.702 35.04 271.035 34.76C270.368 34.4667 269.842 34.0667 269.455 33.56C269.068 33.04 268.855 32.4467 268.815 31.78H270.695C270.748 32.3267 271.002 32.7733 271.455 33.12C271.922 33.4667 272.528 33.64 273.275 33.64C273.968 33.64 274.515 33.4867 274.915 33.18C275.315 32.8733 275.515 32.4867 275.515 32.02C275.515 31.54 275.302 31.1867 274.875 30.96C274.448 30.72 273.788 30.4867 272.895 30.26C272.082 30.0467 271.415 29.8333 270.895 29.62C270.388 29.3933 269.948 29.0667 269.575 28.64C269.215 28.2 269.035 27.6267 269.035 26.92C269.035 26.36 269.202 25.8467 269.535 25.38C269.868 24.9133 270.342 24.5467 270.955 24.28C271.568 24 272.268 23.86 273.055 23.86C274.268 23.86 275.248 24.1667 275.995 24.78C276.742 25.3933 277.142 26.2333 277.195 27.3H275.375C275.335 26.7267 275.102 26.2667 274.675 25.92C274.262 25.5733 273.702 25.4 272.995 25.4C272.342 25.4 271.822 25.54 271.435 25.82C271.048 26.1 270.855 26.4667 270.855 26.92C270.855 27.28 270.968 27.58 271.195 27.82C271.435 28.0467 271.728 28.2333 272.075 28.38C272.435 28.5133 272.928 28.6667 273.555 28.84C274.342 29.0533 274.982 29.2667 275.475 29.48C275.968 29.68 276.388 29.9867 276.735 30.4C277.095 30.8133 277.282 31.3533 277.295 32.02C277.295 32.62 277.128 33.16 276.795 33.64C276.462 34.12 275.988 34.5 275.375 34.78C274.775 35.0467 274.082 35.18 273.295 35.18Z" fill="#FFE385"/>
</svg>
