<svg width="318" height="55" viewBox="0 0 318 55" fill="none" xmlns="http://www.w3.org/2000/svg">
<rect x="1.5" y="1.5" width="315" height="52" rx="26" stroke="#FFE385" stroke-width="3"/>
<path d="M31.4694 32.52H36.3494V34H29.6494V20.06H31.4694V32.52ZM44.0622 34.18C43.0355 34.18 42.1022 33.9467 41.2622 33.48C40.4355 33.0133 39.7822 32.3533 39.3022 31.5C38.8355 30.6333 38.6022 29.6333 38.6022 28.5C38.6022 27.38 38.8422 26.3933 39.3222 25.54C39.8155 24.6733 40.4822 24.0133 41.3222 23.56C42.1622 23.0933 43.1022 22.86 44.1422 22.86C45.1822 22.86 46.1222 23.0933 46.9622 23.56C47.8022 24.0133 48.4622 24.6667 48.9422 25.52C49.4355 26.3733 49.6822 27.3667 49.6822 28.5C49.6822 29.6333 49.4289 30.6333 48.9222 31.5C48.4289 32.3533 47.7555 33.0133 46.9022 33.48C46.0489 33.9467 45.1022 34.18 44.0622 34.18ZM44.0622 32.58C44.7155 32.58 45.3289 32.4267 45.9022 32.12C46.4755 31.8133 46.9355 31.3533 47.2822 30.74C47.6422 30.1267 47.8222 29.38 47.8222 28.5C47.8222 27.62 47.6489 26.8733 47.3022 26.26C46.9555 25.6467 46.5022 25.1933 45.9422 24.9C45.3822 24.5933 44.7755 24.44 44.1222 24.44C43.4555 24.44 42.8422 24.5933 42.2822 24.9C41.7355 25.1933 41.2955 25.6467 40.9622 26.26C40.6289 26.8733 40.4622 27.62 40.4622 28.5C40.4622 29.3933 40.6222 30.1467 40.9422 30.76C41.2755 31.3733 41.7155 31.8333 42.2622 32.14C42.8089 32.4333 43.4089 32.58 44.0622 32.58ZM57.5952 22.86C58.5418 22.86 59.3685 23.0667 60.0752 23.48C60.7952 23.8933 61.3285 24.4133 61.6752 25.04V23.04H63.5152V34.24C63.5152 35.24 63.3018 36.1267 62.8752 36.9C62.4485 37.6867 61.8352 38.3 61.0352 38.74C60.2485 39.18 59.3285 39.4 58.2752 39.4C56.8352 39.4 55.6352 39.06 54.6752 38.38C53.7152 37.7 53.1485 36.7733 52.9752 35.6H54.7752C54.9752 36.2667 55.3885 36.8 56.0152 37.2C56.6418 37.6133 57.3952 37.82 58.2752 37.82C59.2752 37.82 60.0885 37.5067 60.7152 36.88C61.3552 36.2533 61.6752 35.3733 61.6752 34.24V31.94C61.3152 32.58 60.7818 33.1133 60.0752 33.54C59.3685 33.9667 58.5418 34.18 57.5952 34.18C56.6218 34.18 55.7352 33.94 54.9352 33.46C54.1485 32.98 53.5285 32.3067 53.0752 31.44C52.6218 30.5733 52.3952 29.5867 52.3952 28.48C52.3952 27.36 52.6218 26.38 53.0752 25.54C53.5285 24.6867 54.1485 24.0267 54.9352 23.56C55.7352 23.0933 56.6218 22.86 57.5952 22.86ZM61.6752 28.5C61.6752 27.6733 61.5085 26.9533 61.1752 26.34C60.8418 25.7267 60.3885 25.26 59.8152 24.94C59.2552 24.6067 58.6352 24.44 57.9552 24.44C57.2752 24.44 56.6552 24.6 56.0952 24.92C55.5352 25.24 55.0885 25.7067 54.7552 26.32C54.4218 26.9333 54.2552 27.6533 54.2552 28.48C54.2552 29.32 54.4218 30.0533 54.7552 30.68C55.0885 31.2933 55.5352 31.7667 56.0952 32.1C56.6552 32.42 57.2752 32.58 57.9552 32.58C58.6352 32.58 59.2552 32.42 59.8152 32.1C60.3885 31.7667 60.8418 31.2933 61.1752 30.68C61.5085 30.0533 61.6752 29.3267 61.6752 28.5ZM72.3708 34.18C71.3441 34.18 70.4108 33.9467 69.5708 33.48C68.7441 33.0133 68.0908 32.3533 67.6108 31.5C67.1441 30.6333 66.9108 29.6333 66.9108 28.5C66.9108 27.38 67.1508 26.3933 67.6308 25.54C68.1241 24.6733 68.7908 24.0133 69.6308 23.56C70.4708 23.0933 71.4108 22.86 72.4508 22.86C73.4908 22.86 74.4308 23.0933 75.2708 23.56C76.1108 24.0133 76.7708 24.6667 77.2508 25.52C77.7441 26.3733 77.9908 27.3667 77.9908 28.5C77.9908 29.6333 77.7374 30.6333 77.2308 31.5C76.7374 32.3533 76.0641 33.0133 75.2108 33.48C74.3574 33.9467 73.4108 34.18 72.3708 34.18ZM72.3708 32.58C73.0241 32.58 73.6374 32.4267 74.2108 32.12C74.7841 31.8133 75.2441 31.3533 75.5908 30.74C75.9508 30.1267 76.1308 29.38 76.1308 28.5C76.1308 27.62 75.9574 26.8733 75.6108 26.26C75.2641 25.6467 74.8108 25.1933 74.2508 24.9C73.6908 24.5933 73.0841 24.44 72.4308 24.44C71.7641 24.44 71.1508 24.5933 70.5908 24.9C70.0441 25.1933 69.6041 25.6467 69.2708 26.26C68.9374 26.8733 68.7708 27.62 68.7708 28.5C68.7708 29.3933 68.9308 30.1467 69.2508 30.76C69.5841 31.3733 70.0241 31.8333 70.5708 32.14C71.1174 32.4333 71.7174 32.58 72.3708 32.58ZM85.2638 34.18C84.4238 34.18 83.6704 34.04 83.0038 33.76C82.3371 33.4667 81.8104 33.0667 81.4238 32.56C81.0371 32.04 80.8238 31.4467 80.7838 30.78H82.6638C82.7171 31.3267 82.9704 31.7733 83.4238 32.12C83.8904 32.4667 84.4971 32.64 85.2438 32.64C85.9371 32.64 86.4838 32.4867 86.8838 32.18C87.2838 31.8733 87.4838 31.4867 87.4838 31.02C87.4838 30.54 87.2704 30.1867 86.8438 29.96C86.4171 29.72 85.7571 29.4867 84.8638 29.26C84.0504 29.0467 83.3838 28.8333 82.8638 28.62C82.3571 28.3933 81.9171 28.0667 81.5438 27.64C81.1838 27.2 81.0038 26.6267 81.0038 25.92C81.0038 25.36 81.1704 24.8467 81.5038 24.38C81.8371 23.9133 82.3104 23.5467 82.9238 23.28C83.5371 23 84.2371 22.86 85.0238 22.86C86.2371 22.86 87.2171 23.1667 87.9638 23.78C88.7104 24.3933 89.1104 25.2333 89.1638 26.3H87.3438C87.3038 25.7267 87.0704 25.2667 86.6438 24.92C86.2304 24.5733 85.6704 24.4 84.9638 24.4C84.3104 24.4 83.7904 24.54 83.4038 24.82C83.0171 25.1 82.8238 25.4667 82.8238 25.92C82.8238 26.28 82.9371 26.58 83.1638 26.82C83.4038 27.0467 83.6971 27.2333 84.0438 27.38C84.4038 27.5133 84.8971 27.6667 85.5238 27.84C86.3104 28.0533 86.9504 28.2667 87.4438 28.48C87.9371 28.68 88.3571 28.9867 88.7038 29.4C89.0638 29.8133 89.2504 30.3533 89.2638 31.02C89.2638 31.62 89.0971 32.16 88.7638 32.64C88.4304 33.12 87.9571 33.5 87.3438 33.78C86.7438 34.0467 86.0504 34.18 85.2638 34.18ZM109.165 28.1C109.165 28.4467 109.145 28.8133 109.105 29.2H100.345C100.412 30.28 100.778 31.1267 101.445 31.74C102.125 32.34 102.945 32.64 103.905 32.64C104.692 32.64 105.345 32.46 105.865 32.1C106.398 31.7267 106.772 31.2333 106.985 30.62H108.945C108.652 31.6733 108.065 32.5333 107.185 33.2C106.305 33.8533 105.212 34.18 103.905 34.18C102.865 34.18 101.932 33.9467 101.105 33.48C100.292 33.0133 99.6517 32.3533 99.185 31.5C98.7183 30.6333 98.485 29.6333 98.485 28.5C98.485 27.3667 98.7117 26.3733 99.165 25.52C99.6183 24.6667 100.252 24.0133 101.065 23.56C101.892 23.0933 102.838 22.86 103.905 22.86C104.945 22.86 105.865 23.0867 106.665 23.54C107.465 23.9933 108.078 24.62 108.505 25.42C108.945 26.2067 109.165 27.1 109.165 28.1ZM107.285 27.72C107.285 27.0267 107.132 26.4333 106.825 25.94C106.518 25.4333 106.098 25.0533 105.565 24.8C105.045 24.5333 104.465 24.4 103.825 24.4C102.905 24.4 102.118 24.6933 101.465 25.28C100.825 25.8667 100.458 26.68 100.365 27.72H107.285ZM119.839 21.26C119.493 21.26 119.199 21.14 118.959 20.9C118.719 20.66 118.599 20.3667 118.599 20.02C118.599 19.6733 118.719 19.38 118.959 19.14C119.199 18.9 119.493 18.78 119.839 18.78C120.173 18.78 120.453 18.9 120.679 19.14C120.919 19.38 121.039 19.6733 121.039 20.02C121.039 20.3667 120.919 20.66 120.679 20.9C120.453 21.14 120.173 21.26 119.839 21.26ZM120.719 23.04V34H118.899V23.04H120.719ZM124.141 28.48C124.141 27.36 124.368 26.38 124.821 25.54C125.275 24.6867 125.895 24.0267 126.681 23.56C127.481 23.0933 128.375 22.86 129.361 22.86C130.215 22.86 131.008 23.06 131.741 23.46C132.475 23.8467 133.035 24.36 133.421 25V19.2H135.261V34H133.421V31.94C133.061 32.5933 132.528 33.1333 131.821 33.56C131.115 33.9733 130.288 34.18 129.341 34.18C128.368 34.18 127.481 33.94 126.681 33.46C125.895 32.98 125.275 32.3067 124.821 31.44C124.368 30.5733 124.141 29.5867 124.141 28.48ZM133.421 28.5C133.421 27.6733 133.255 26.9533 132.921 26.34C132.588 25.7267 132.135 25.26 131.561 24.94C131.001 24.6067 130.381 24.44 129.701 24.44C129.021 24.44 128.401 24.6 127.841 24.92C127.281 25.24 126.835 25.7067 126.501 26.32C126.168 26.9333 126.001 27.6533 126.001 28.48C126.001 29.32 126.168 30.0533 126.501 30.68C126.835 31.2933 127.281 31.7667 127.841 32.1C128.401 32.42 129.021 32.58 129.701 32.58C130.381 32.58 131.001 32.42 131.561 32.1C132.135 31.7667 132.588 31.2933 132.921 30.68C133.255 30.0533 133.421 29.3267 133.421 28.5ZM149.337 28.1C149.337 28.4467 149.317 28.8133 149.277 29.2H140.517C140.584 30.28 140.95 31.1267 141.617 31.74C142.297 32.34 143.117 32.64 144.077 32.64C144.864 32.64 145.517 32.46 146.037 32.1C146.57 31.7267 146.944 31.2333 147.157 30.62H149.117C148.824 31.6733 148.237 32.5333 147.357 33.2C146.477 33.8533 145.384 34.18 144.077 34.18C143.037 34.18 142.104 33.9467 141.277 33.48C140.464 33.0133 139.824 32.3533 139.357 31.5C138.89 30.6333 138.657 29.6333 138.657 28.5C138.657 27.3667 138.884 26.3733 139.337 25.52C139.79 24.6667 140.424 24.0133 141.237 23.56C142.064 23.0933 143.01 22.86 144.077 22.86C145.117 22.86 146.037 23.0867 146.837 23.54C147.637 23.9933 148.25 24.62 148.677 25.42C149.117 26.2067 149.337 27.1 149.337 28.1ZM147.457 27.72C147.457 27.0267 147.304 26.4333 146.997 25.94C146.69 25.4333 146.27 25.0533 145.737 24.8C145.217 24.5333 144.637 24.4 143.997 24.4C143.077 24.4 142.29 24.6933 141.637 25.28C140.997 25.8667 140.63 26.68 140.537 27.72H147.457ZM158.079 22.84C159.413 22.84 160.493 23.2467 161.319 24.06C162.146 24.86 162.559 26.02 162.559 27.54V34H160.759V27.8C160.759 26.7067 160.486 25.8733 159.939 25.3C159.393 24.7133 158.646 24.42 157.699 24.42C156.739 24.42 155.973 24.72 155.399 25.32C154.839 25.92 154.559 26.7933 154.559 27.94V34H152.739V23.04H154.559V24.6C154.919 24.04 155.406 23.6067 156.019 23.3C156.646 22.9933 157.333 22.84 158.079 22.84ZM168.752 24.54V31C168.752 31.5333 168.866 31.9133 169.092 32.14C169.319 32.3533 169.712 32.46 170.272 32.46H171.612V34H169.972C168.959 34 168.199 33.7667 167.692 33.3C167.186 32.8333 166.932 32.0667 166.932 31V24.54H165.512V23.04H166.932V20.28H168.752V23.04H171.612V24.54H168.752ZM175.757 21.26C175.411 21.26 175.117 21.14 174.877 20.9C174.637 20.66 174.517 20.3667 174.517 20.02C174.517 19.6733 174.637 19.38 174.877 19.14C175.117 18.9 175.411 18.78 175.757 18.78C176.091 18.78 176.371 18.9 176.597 19.14C176.837 19.38 176.957 19.6733 176.957 20.02C176.957 20.3667 176.837 20.66 176.597 20.9C176.371 21.14 176.091 21.26 175.757 21.26ZM176.637 23.04V34H174.817V23.04H176.637ZM180.059 28.48C180.059 27.36 180.286 26.38 180.739 25.54C181.193 24.6867 181.813 24.0267 182.599 23.56C183.399 23.0933 184.293 22.86 185.279 22.86C186.133 22.86 186.926 23.06 187.659 23.46C188.393 23.8467 188.953 24.36 189.339 25V19.2H191.179V34H189.339V31.94C188.979 32.5933 188.446 33.1333 187.739 33.56C187.033 33.9733 186.206 34.18 185.259 34.18C184.286 34.18 183.399 33.94 182.599 33.46C181.813 32.98 181.193 32.3067 180.739 31.44C180.286 30.5733 180.059 29.5867 180.059 28.48ZM189.339 28.5C189.339 27.6733 189.173 26.9533 188.839 26.34C188.506 25.7267 188.053 25.26 187.479 24.94C186.919 24.6067 186.299 24.44 185.619 24.44C184.939 24.44 184.319 24.6 183.759 24.92C183.199 25.24 182.753 25.7067 182.419 26.32C182.086 26.9333 181.919 27.6533 181.919 28.48C181.919 29.32 182.086 30.0533 182.419 30.68C182.753 31.2933 183.199 31.7667 183.759 32.1C184.319 32.42 184.939 32.58 185.619 32.58C186.299 32.58 186.919 32.42 187.479 32.1C188.053 31.7667 188.506 31.2933 188.839 30.68C189.173 30.0533 189.339 29.3267 189.339 28.5ZM194.575 28.48C194.575 27.36 194.802 26.38 195.255 25.54C195.708 24.6867 196.328 24.0267 197.115 23.56C197.915 23.0933 198.802 22.86 199.775 22.86C200.735 22.86 201.568 23.0667 202.275 23.48C202.982 23.8933 203.508 24.4133 203.855 25.04V23.04H205.695V34H203.855V31.96C203.495 32.6 202.955 33.1333 202.235 33.56C201.528 33.9733 200.702 34.18 199.755 34.18C198.782 34.18 197.902 33.94 197.115 33.46C196.328 32.98 195.708 32.3067 195.255 31.44C194.802 30.5733 194.575 29.5867 194.575 28.48ZM203.855 28.5C203.855 27.6733 203.688 26.9533 203.355 26.34C203.022 25.7267 202.568 25.26 201.995 24.94C201.435 24.6067 200.815 24.44 200.135 24.44C199.455 24.44 198.835 24.6 198.275 24.92C197.715 25.24 197.268 25.7067 196.935 26.32C196.602 26.9333 196.435 27.6533 196.435 28.48C196.435 29.32 196.602 30.0533 196.935 30.68C197.268 31.2933 197.715 31.7667 198.275 32.1C198.835 32.42 199.455 32.58 200.135 32.58C200.815 32.58 201.435 32.42 201.995 32.1C202.568 31.7667 203.022 31.2933 203.355 30.68C203.688 30.0533 203.855 29.3267 203.855 28.5ZM209.09 28.48C209.09 27.36 209.317 26.38 209.77 25.54C210.224 24.6867 210.844 24.0267 211.63 23.56C212.43 23.0933 213.324 22.86 214.31 22.86C215.164 22.86 215.957 23.06 216.69 23.46C217.424 23.8467 217.984 24.36 218.37 25V19.2H220.21V34H218.37V31.94C218.01 32.5933 217.477 33.1333 216.77 33.56C216.064 33.9733 215.237 34.18 214.29 34.18C213.317 34.18 212.43 33.94 211.63 33.46C210.844 32.98 210.224 32.3067 209.77 31.44C209.317 30.5733 209.09 29.5867 209.09 28.48ZM218.37 28.5C218.37 27.6733 218.204 26.9533 217.87 26.34C217.537 25.7267 217.084 25.26 216.51 24.94C215.95 24.6067 215.33 24.44 214.65 24.44C213.97 24.44 213.35 24.6 212.79 24.92C212.23 25.24 211.784 25.7067 211.45 26.32C211.117 26.9333 210.95 27.6533 210.95 28.48C210.95 29.32 211.117 30.0533 211.45 30.68C211.784 31.2933 212.23 31.7667 212.79 32.1C213.35 32.42 213.97 32.58 214.65 32.58C215.33 32.58 215.95 32.42 216.51 32.1C217.084 31.7667 217.537 31.2933 217.87 30.68C218.204 30.0533 218.37 29.3267 218.37 28.5ZM234.698 32.32L238.098 23.04H240.038L235.738 34H233.618L229.318 23.04H231.278L234.698 32.32ZM243.769 21.26C243.422 21.26 243.129 21.14 242.889 20.9C242.649 20.66 242.529 20.3667 242.529 20.02C242.529 19.6733 242.649 19.38 242.889 19.14C243.129 18.9 243.422 18.78 243.769 18.78C244.102 18.78 244.382 18.9 244.609 19.14C244.849 19.38 244.969 19.6733 244.969 20.02C244.969 20.3667 244.849 20.66 244.609 20.9C244.382 21.14 244.102 21.26 243.769 21.26ZM244.649 23.04V34H242.829V23.04H244.649ZM252.631 34.18C251.791 34.18 251.038 34.04 250.371 33.76C249.704 33.4667 249.178 33.0667 248.791 32.56C248.404 32.04 248.191 31.4467 248.151 30.78H250.031C250.084 31.3267 250.338 31.7733 250.791 32.12C251.258 32.4667 251.864 32.64 252.611 32.64C253.304 32.64 253.851 32.4867 254.251 32.18C254.651 31.8733 254.851 31.4867 254.851 31.02C254.851 30.54 254.638 30.1867 254.211 29.96C253.784 29.72 253.124 29.4867 252.231 29.26C251.418 29.0467 250.751 28.8333 250.231 28.62C249.724 28.3933 249.284 28.0667 248.911 27.64C248.551 27.2 248.371 26.6267 248.371 25.92C248.371 25.36 248.538 24.8467 248.871 24.38C249.204 23.9133 249.678 23.5467 250.291 23.28C250.904 23 251.604 22.86 252.391 22.86C253.604 22.86 254.584 23.1667 255.331 23.78C256.078 24.3933 256.478 25.2333 256.531 26.3H254.711C254.671 25.7267 254.438 25.2667 254.011 24.92C253.598 24.5733 253.038 24.4 252.331 24.4C251.678 24.4 251.158 24.54 250.771 24.82C250.384 25.1 250.191 25.4667 250.191 25.92C250.191 26.28 250.304 26.58 250.531 26.82C250.771 27.0467 251.064 27.2333 251.411 27.38C251.771 27.5133 252.264 27.6667 252.891 27.84C253.678 28.0533 254.318 28.2667 254.811 28.48C255.304 28.68 255.724 28.9867 256.071 29.4C256.431 29.8133 256.618 30.3533 256.631 31.02C256.631 31.62 256.464 32.16 256.131 32.64C255.798 33.12 255.324 33.5 254.711 33.78C254.111 34.0467 253.418 34.18 252.631 34.18ZM269.92 23.04V34H268.1V32.38C267.753 32.94 267.267 33.38 266.64 33.7C266.027 34.0067 265.347 34.16 264.6 34.16C263.747 34.16 262.98 33.9867 262.3 33.64C261.62 33.28 261.08 32.7467 260.68 32.04C260.293 31.3333 260.1 30.4733 260.1 29.46V23.04H261.9V29.22C261.9 30.3 262.173 31.1333 262.72 31.72C263.267 32.2933 264.013 32.58 264.96 32.58C265.933 32.58 266.7 32.28 267.26 31.68C267.82 31.08 268.1 30.2067 268.1 29.06V23.04H269.92ZM273.313 28.48C273.313 27.36 273.54 26.38 273.993 25.54C274.446 24.6867 275.066 24.0267 275.853 23.56C276.653 23.0933 277.54 22.86 278.513 22.86C279.473 22.86 280.306 23.0667 281.013 23.48C281.72 23.8933 282.246 24.4133 282.593 25.04V23.04H284.433V34H282.593V31.96C282.233 32.6 281.693 33.1333 280.973 33.56C280.266 33.9733 279.44 34.18 278.493 34.18C277.52 34.18 276.64 33.94 275.853 33.46C275.066 32.98 274.446 32.3067 273.993 31.44C273.54 30.5733 273.313 29.5867 273.313 28.48ZM282.593 28.5C282.593 27.6733 282.426 26.9533 282.093 26.34C281.76 25.7267 281.306 25.26 280.733 24.94C280.173 24.6067 279.553 24.44 278.873 24.44C278.193 24.44 277.573 24.6 277.013 24.92C276.453 25.24 276.006 25.7067 275.673 26.32C275.34 26.9333 275.173 27.6533 275.173 28.48C275.173 29.32 275.34 30.0533 275.673 30.68C276.006 31.2933 276.453 31.7667 277.013 32.1C277.573 32.42 278.193 32.58 278.873 32.58C279.553 32.58 280.173 32.42 280.733 32.1C281.306 31.7667 281.76 31.2933 282.093 30.68C282.426 30.0533 282.593 29.3267 282.593 28.5ZM290.329 19.2V34H288.509V19.2H290.329Z" fill="#FFE385"/>
</svg>
