<svg width="318" height="55" viewBox="0 0 318 55" fill="none" xmlns="http://www.w3.org/2000/svg">
<rect x="1.5" y="1.5" width="315" height="52" rx="26" stroke="#FFE385" stroke-width="3"/>
<path d="M119.723 32.52H124.603V34H117.903V20.06H119.723V32.52ZM128.476 21.26C128.129 21.26 127.836 21.14 127.596 20.9C127.356 20.66 127.236 20.3667 127.236 20.02C127.236 19.6733 127.356 19.38 127.596 19.14C127.836 18.9 128.129 18.78 128.476 18.78C128.809 18.78 129.089 18.9 129.316 19.14C129.556 19.38 129.676 19.6733 129.676 20.02C129.676 20.3667 129.556 20.66 129.316 20.9C129.089 21.14 128.809 21.26 128.476 21.26ZM129.356 23.04V34H127.536V23.04H129.356ZM138.798 22.84C140.131 22.84 141.211 23.2467 142.038 24.06C142.865 24.86 143.278 26.02 143.278 27.54V34H141.478V27.8C141.478 26.7067 141.205 25.8733 140.658 25.3C140.111 24.7133 139.365 24.42 138.418 24.42C137.458 24.42 136.691 24.72 136.118 25.32C135.558 25.92 135.278 26.7933 135.278 27.94V34H133.458V23.04H135.278V24.6C135.638 24.04 136.125 23.6067 136.738 23.3C137.365 22.9933 138.051 22.84 138.798 22.84ZM153.371 34L149.071 29.16V34H147.251V19.2H149.071V27.9L153.291 23.04H155.831L150.671 28.5L155.851 34H153.371ZM168.544 28.1C168.544 28.4467 168.524 28.8133 168.484 29.2H159.724C159.791 30.28 160.157 31.1267 160.824 31.74C161.504 32.34 162.324 32.64 163.284 32.64C164.071 32.64 164.724 32.46 165.244 32.1C165.777 31.7267 166.151 31.2333 166.364 30.62H168.324C168.031 31.6733 167.444 32.5333 166.564 33.2C165.684 33.8533 164.591 34.18 163.284 34.18C162.244 34.18 161.311 33.9467 160.484 33.48C159.671 33.0133 159.031 32.3533 158.564 31.5C158.097 30.6333 157.864 29.6333 157.864 28.5C157.864 27.3667 158.091 26.3733 158.544 25.52C158.997 24.6667 159.631 24.0133 160.444 23.56C161.271 23.0933 162.217 22.86 163.284 22.86C164.324 22.86 165.244 23.0867 166.044 23.54C166.844 23.9933 167.457 24.62 167.884 25.42C168.324 26.2067 168.544 27.1 168.544 28.1ZM166.664 27.72C166.664 27.0267 166.511 26.4333 166.204 25.94C165.897 25.4333 165.477 25.0533 164.944 24.8C164.424 24.5333 163.844 24.4 163.204 24.4C162.284 24.4 161.497 24.6933 160.844 25.28C160.204 25.8667 159.837 26.68 159.744 27.72H166.664ZM171.266 28.48C171.266 27.36 171.493 26.38 171.946 25.54C172.4 24.6867 173.02 24.0267 173.806 23.56C174.606 23.0933 175.5 22.86 176.486 22.86C177.34 22.86 178.133 23.06 178.866 23.46C179.6 23.8467 180.16 24.36 180.546 25V19.2H182.386V34H180.546V31.94C180.186 32.5933 179.653 33.1333 178.946 33.56C178.24 33.9733 177.413 34.18 176.466 34.18C175.493 34.18 174.606 33.94 173.806 33.46C173.02 32.98 172.4 32.3067 171.946 31.44C171.493 30.5733 171.266 29.5867 171.266 28.48ZM180.546 28.5C180.546 27.6733 180.38 26.9533 180.046 26.34C179.713 25.7267 179.26 25.26 178.686 24.94C178.126 24.6067 177.506 24.44 176.826 24.44C176.146 24.44 175.526 24.6 174.966 24.92C174.406 25.24 173.96 25.7067 173.626 26.32C173.293 26.9333 173.126 27.6533 173.126 28.48C173.126 29.32 173.293 30.0533 173.626 30.68C173.96 31.2933 174.406 31.7667 174.966 32.1C175.526 32.42 176.146 32.58 176.826 32.58C177.506 32.58 178.126 32.42 178.686 32.1C179.26 31.7667 179.713 31.2933 180.046 30.68C180.38 30.0533 180.546 29.3267 180.546 28.5ZM188.282 20.06V34H186.462V20.06H188.282ZM197.724 22.84C199.057 22.84 200.137 23.2467 200.964 24.06C201.79 24.86 202.204 26.02 202.204 27.54V34H200.404V27.8C200.404 26.7067 200.13 25.8733 199.584 25.3C199.037 24.7133 198.29 24.42 197.344 24.42C196.384 24.42 195.617 24.72 195.044 25.32C194.484 25.92 194.204 26.7933 194.204 27.94V34H192.384V23.04H194.204V24.6C194.564 24.04 195.05 23.6067 195.664 23.3C196.29 22.9933 196.977 22.84 197.724 22.84Z" fill="#FFE385"/>
</svg>
